<?xml version="1.0" standalone="no"?>
<!DOCTYPE svg PUBLIC "-//W3C//DTD SVG 20010904//EN"
 "http://www.w3.org/TR/2001/REC-SVG-20010904/DTD/svg10.dtd">
<svg version="1.0" xmlns="http://www.w3.org/2000/svg"
 width="1536.000000pt" height="1024.000000pt" viewBox="0 0 1536.000000 1024.000000"
 preserveAspectRatio="xMidYMid meet">

<g transform="translate(0.000000,1024.000000) scale(0.100000,-0.100000)"
fill="#000000" stroke="none">
<path d="M9430 9201 l-35 -8 30 -2 c18 -2 24 -5 15 -8 -8 -3 -17 -9 -20 -13
-3 -4 -39 -15 -80 -25 -103 -24 -405 -137 -514 -192 -84 -42 -91 -44 -103 -27
-10 14 -10 19 5 31 30 24 -49 -17 -123 -65 -118 -75 -205 -143 -198 -154 3 -6
2 -8 -4 -5 -13 8 -98 -64 -99 -84 -1 -15 2 -15 25 -5 29 12 165 103 223 148
20 15 43 26 51 23 8 -4 41 9 73 28 112 65 295 156 387 191 233 90 578 129 749
85 27 -7 43 -19 53 -40 l16 -30 -138 5 c-128 5 -131 4 -49 -4 88 -10 151 -34
127 -49 -7 -5 18 -16 56 -26 37 -9 104 -34 148 -54 65 -30 92 -50 144 -107 80
-88 107 -134 120 -209 12 -68 4 -117 -28 -168 -30 -48 -26 -55 11 -21 l32 29
-19 -30 -18 -30 27 25 c15 14 31 24 34 22 4 -2 8 2 10 10 2 9 0 8 -8 -2 -8
-10 -10 -11 -8 -2 2 8 6 12 10 10 3 -2 16 6 27 16 19 17 21 17 15 3 -5 -13 -2
-16 10 -11 9 3 16 9 16 13 0 4 13 14 29 24 71 41 97 189 53 290 -11 26 -25 47
-31 47 -11 0 -21 -58 -20 -123 0 -27 -2 -51 -5 -54 -3 -4 -6 11 -6 33 -1 21
-8 57 -16 79 -8 22 -21 60 -29 85 -20 63 -66 130 -132 190 -50 46 -130 97
-138 88 -2 -2 26 -26 63 -54 133 -100 193 -211 191 -351 l-2 -78 -8 61 c-26
201 -116 329 -292 413 -138 67 -216 83 -417 86 -96 2 -191 0 -210 -4z m766
-257 c123 -118 174 -264 134 -382 -18 -52 -19 -53 -14 -17 9 75 7 161 -6 201
-33 102 -69 148 -210 267 -41 35 -42 36 -11 20 19 -10 67 -50 107 -89z m-1546
-88 c0 -2 -11 -11 -25 -20 -14 -9 -25 -13 -25 -8 0 5 10 14 23 20 27 13 27 13
27 8z"/>
<path d="M9600 8949 c-242 -28 -451 -110 -686 -268 -270 -180 -529 -437 -750
-742 -300 -416 -380 -513 -559 -676 -52 -48 -93 -88 -91 -91 14 -13 252 137
382 242 115 93 315 303 499 526 450 545 609 694 892 838 298 151 556 171 800
62 83 -37 53 -9 -48 45 -110 58 -280 83 -439 64z"/>
<path d="M8875 8854 c-126 -65 -306 -185 -400 -268 -140 -124 -318 -309 -369
-384 -27 -39 -51 -70 -53 -68 -5 5 40 79 116 188 35 51 58 87 51 81 -17 -16
-47 -17 -52 -2 -7 20 -194 -175 -284 -295 -49 -66 -97 -129 -106 -141 -22 -28
-160 -298 -176 -343 -6 -18 -7 -30 -2 -27 5 3 15 -3 22 -14 11 -18 13 -18 25
-3 24 32 13 -3 -20 -61 -81 -145 -117 -197 -184 -265 -47 -47 -83 -75 -103
-78 -16 -4 -49 -23 -73 -44 -23 -20 -60 -49 -81 -64 -31 -21 -35 -26 -18 -26
33 0 190 60 215 82 12 11 15 16 7 12 -8 -4 1 11 21 32 20 21 47 52 60 68 13
16 29 34 35 40 6 6 17 22 24 36 7 14 24 33 36 43 25 20 75 85 56 73 -8 -5 -10
-2 -6 8 3 9 11 13 17 9 5 -3 7 -2 4 4 -11 18 108 195 157 234 32 25 46 18 41
-22 -3 -28 -138 -240 -189 -299 -64 -73 -35 -52 54 40 96 99 240 278 394 490
38 52 109 148 158 214 60 80 90 127 90 146 1 19 20 50 61 97 95 109 108 135
86 175 -9 17 -6 25 18 50 53 56 248 197 362 262 133 76 136 86 6 20z m-882
-737 c-111 -184 -138 -226 -140 -223 -5 5 86 166 114 203 25 33 41 45 26 20z"/>
<path d="M10527 8743 c7 -59 15 -69 36 -45 22 24 6 92 -22 92 -16 0 -18 -6
-14 -47z"/>
<path d="M7345 8725 c-19 -20 -35 -41 -35 -47 0 -6 1 -9 3 -7 1 2 20 23 42 47
47 51 40 56 -10 7z"/>
<path d="M9759 8735 c-57 -14 -203 -75 -196 -82 2 -2 24 6 49 17 132 58 372
80 415 38 16 -17 16 -18 -7 -18 -21 -1 -19 -3 11 -14 83 -29 122 -74 134 -156
5 -38 2 -54 -22 -100 -17 -32 -47 -69 -73 -89 -42 -32 -43 -34 -15 -27 35 9
115 73 132 107 7 13 22 44 33 69 16 35 20 38 15 15 -4 -22 -3 -26 5 -15 16 25
11 87 -10 122 l-20 33 0 -34 0 -34 -38 54 c-44 62 -86 93 -155 114 -62 18
-182 18 -258 0z"/>
<path d="M9344 8714 c-18 -14 -18 -15 4 -4 12 6 22 13 22 15 0 8 -5 6 -26 -11z"/>
<path d="M9245 8661 c-28 -16 -57 -37 -65 -46 -7 -9 10 -1 38 17 27 18 59 38
69 45 35 23 7 12 -42 -16z"/>
<path d="M9849 8666 c-155 -64 -222 -108 -324 -211 -122 -122 -209 -250 -366
-540 -62 -115 -153 -271 -203 -345 -76 -116 -115 -161 -273 -319 -123 -123
-186 -194 -190 -212 -3 -15 -18 -40 -34 -55 -16 -15 -29 -33 -29 -38 0 -21
-176 -136 -298 -196 -154 -75 -283 -115 -326 -100 -16 5 -31 8 -34 5 -3 -2
-13 0 -23 6 -13 7 -44 5 -102 -6 -234 -45 -482 -27 -852 60 -60 14 -132 28
-159 31 -27 3 -57 9 -67 14 -10 6 -24 10 -31 10 -25 0 218 -108 312 -138 205
-65 409 -96 625 -95 172 1 265 13 422 53 307 79 522 207 778 464 230 231 298
340 583 939 130 272 288 470 469 588 100 65 148 88 203 99 34 8 34 8 5 8 -16
1 -55 -9 -86 -22z"/>
<path d="M10563 8670 c-16 -7 -23 -18 -23 -37 -1 -37 -35 -111 -66 -144 l-25
-26 108 -6 c59 -3 130 -13 156 -21 44 -13 47 -13 35 1 -20 25 -93 53 -161 63
-54 8 -48 9 48 6 130 -4 159 -14 263 -92 80 -61 86 -48 8 16 -60 50 -153 106
-189 115 -15 4 -30 12 -33 17 -4 7 2 7 17 2 28 -9 71 -13 81 -7 15 8 -7 35
-64 78 -62 47 -103 56 -155 35z"/>
<path d="M9888 8600 c-57 -23 -131 -76 -178 -127 -86 -94 -290 -371 -290 -394
0 -5 -14 -37 -30 -71 -17 -34 -28 -68 -25 -76 2 -7 1 -11 -4 -8 -5 3 -14 -8
-20 -26 -13 -38 -14 -48 -1 -28 8 11 9 9 8 -12 -1 -16 -6 -28 -11 -28 -5 0 -7
-11 -5 -25 3 -14 2 -27 -1 -30 -4 -2 -8 8 -9 22 -1 15 -4 28 -6 30 -2 2 -33
-61 -69 -140 -37 -79 -83 -173 -103 -208 -20 -35 -56 -98 -80 -140 -100 -175
-264 -373 -418 -506 -275 -237 -574 -365 -957 -412 -87 -11 -132 -19 -104 -20
73 -1 365 26 400 38 17 5 68 17 114 27 46 10 99 28 118 41 39 27 51 29 33 8
-11 -13 -10 -14 6 -8 17 6 18 5 5 -11 -10 -12 -11 -20 -4 -24 14 -9 33 -134
33 -219 0 -150 -52 -342 -126 -466 -156 -259 -331 -375 -703 -469 -328 -82
-433 -123 -508 -198 -117 -116 -120 -266 -10 -387 47 -51 48 -53 16 -34 -19
11 -58 43 -87 71 -40 40 -56 64 -68 108 -36 122 1 240 102 330 99 89 234 142
529 207 216 48 322 88 437 167 161 108 320 336 368 524 27 105 26 344 -1 344
-4 0 -26 -37 -49 -82 -125 -254 -194 -342 -340 -439 -86 -57 -211 -101 -339
-120 -118 -17 -349 -6 -546 26 -206 33 -398 48 -505 40 -95 -8 -209 -42 -287
-86 -109 -62 -233 -233 -262 -360 -12 -52 -14 -129 -3 -112 7 11 35 20 68 22
7 1 15 16 18 34 8 44 66 161 109 221 33 46 99 100 160 132 22 12 18 5 -19 -33
-116 -120 -172 -230 -179 -352 -2 -36 -1 -54 1 -38 3 15 10 25 15 21 5 -3 6
-10 3 -16 -5 -8 -1 -9 12 -3 10 5 33 9 49 10 17 1 38 3 48 3 10 1 23 15 28 32
6 17 15 30 20 30 16 0 55 47 51 61 -3 8 -1 11 3 7 5 -4 14 -3 22 3 7 6 2 -14
-12 -46 -36 -80 -50 -197 -35 -282 17 -102 55 -200 99 -257 22 -28 45 -63 52
-78 10 -24 42 -45 60 -40 4 0 17 -11 30 -25 24 -26 24 -26 2 -14 -31 16 -31
-5 1 -41 16 -20 33 -28 55 -28 20 0 42 -9 58 -24 l25 -24 -26 5 c-14 3 -26 9
-26 14 0 5 -4 9 -9 9 -5 0 -8 -6 -7 -14 2 -16 31 -46 44 -46 18 0 82 -74 71
-81 -23 -14 178 -51 333 -61 169 -11 238 -7 538 32 158 20 254 44 347 86 39
18 58 21 75 14 13 -5 17 -9 9 -9 -8 -1 -12 -4 -8 -7 13 -13 175 79 285 161 61
47 113 84 115 82 7 -6 105 85 157 147 33 39 71 83 86 97 14 15 46 60 70 100
49 83 56 78 19 -13 -14 -34 -23 -63 -21 -65 1 -2 15 15 30 37 14 22 28 40 30
40 7 0 -15 -73 -31 -105 l-16 -30 23 20 c13 11 31 34 41 50 21 33 24 30 9 -9
-5 -14 -11 -43 -14 -66 -8 -64 -74 -139 -193 -220 -68 -45 -77 -55 -39 -40 84
31 148 74 204 135 33 36 63 62 66 56 10 -15 -94 -130 -158 -175 -32 -22 -67
-47 -78 -55 -10 -8 -44 -20 -76 -27 l-57 -12 75 5 c41 2 98 11 125 18 90 25
222 123 258 190 27 51 35 24 13 -42 -29 -84 -84 -169 -151 -232 -36 -33 -63
-61 -60 -61 21 0 94 64 130 114 90 127 149 281 176 454 7 45 15 80 18 79 3 0
21 7 39 16 18 10 83 29 145 43 61 13 135 32 162 40 71 23 257 126 263 146 2 9
29 33 60 54 59 39 171 128 233 186 65 60 159 139 159 134 0 -3 -12 -45 -27
-93 -24 -81 -26 -103 -27 -268 -1 -152 2 -184 16 -205 9 -14 26 -69 37 -124
18 -80 61 -186 76 -186 2 0 -8 25 -22 56 -51 111 -41 196 33 300 25 35 42 64
38 64 -15 0 42 53 96 90 30 20 93 59 140 85 47 26 111 65 143 86 31 21 63 36
70 33 39 -15 314 240 390 362 92 148 166 359 212 612 44 234 43 421 -1 672
-19 112 -78 311 -117 399 -30 69 -37 32 -18 -99 9 -64 14 -127 10 -140 -4 -14
-7 -20 -8 -13 -1 7 -7 10 -15 7 -17 -7 -22 1 -31 50 -5 27 -4 37 3 32 7 -4 9
10 6 45 -6 59 -55 176 -78 185 -9 3 -16 10 -16 15 0 14 -102 170 -139 211 -17
20 -34 46 -36 57 -3 19 -1 20 17 10 16 -9 19 -8 13 2 -6 9 -3 11 9 6 28 -11
-35 63 -127 149 -45 41 -81 82 -79 90 3 13 -9 18 -36 15 -7 -1 -15 5 -18 13
-7 19 -87 52 -144 61 -62 9 -212 -19 -275 -50 -28 -14 -73 -30 -100 -34 l-50
-8 80 -7 c117 -10 252 -42 326 -77 73 -35 132 -76 124 -88 -2 -5 5 -17 18 -27
l22 -19 -19 23 c-29 33 -4 26 30 -9 16 -17 38 -35 49 -41 11 -6 -9 20 -45 56
-78 81 -191 146 -304 175 -89 23 -108 33 -50 25 153 -21 297 -101 463 -260
216 -205 359 -498 410 -841 14 -89 14 -334 1 -388 -6 -22 -20 -94 -31 -159
-23 -133 -72 -282 -129 -395 -108 -215 -246 -356 -515 -526 -207 -132 -338
-274 -366 -401 -20 -87 -33 -78 -25 17 4 46 12 105 18 131 10 49 88 180 124
208 10 8 -4 -16 -31 -54 -31 -45 -55 -93 -67 -135 -10 -35 -16 -66 -14 -68 2
-2 29 48 60 110 31 63 74 134 96 159 21 25 37 48 34 50 -15 15 223 205 268
213 27 6 117 76 213 167 49 46 83 72 76 59 -23 -41 7 -13 54 53 24 35 58 92
75 128 57 122 100 344 100 517 0 86 -26 279 -45 335 -8 23 -21 74 -30 114 -23
113 -97 313 -110 300 -3 -3 8 -41 24 -84 73 -198 94 -311 95 -509 1 -120 -23
-325 -32 -281 -4 20 -30 51 -36 45 -2 -2 -20 -67 -40 -144 -44 -165 -91 -278
-168 -396 -76 -117 -165 -209 -267 -276 -135 -88 -209 -152 -267 -232 -30 -40
-54 -71 -54 -67 0 13 54 143 70 166 33 49 36 57 17 41 -27 -22 -20 1 13 41 17
21 72 64 123 97 51 34 111 74 134 91 47 34 129 149 214 302 29 53 55 96 56 94
7 -6 -30 -95 -72 -174 -47 -89 -38 -95 15 -12 43 67 97 202 125 315 85 333 40
639 -150 1040 -57 120 -105 200 -167 278 -21 27 -38 54 -38 60 1 23 126 -121
164 -189 89 -158 140 -260 166 -332 16 -42 29 -72 30 -65 0 23 -60 173 -113
279 -30 60 -52 115 -49 122 2 8 -7 26 -21 40 -27 30 -62 92 -50 92 4 0 2 5 -5
12 -7 7 -12 17 -12 23 0 5 5 2 11 -7 5 -10 15 -18 21 -18 6 0 3 9 -7 20 -10
11 -21 18 -23 15 -3 -3 -24 12 -46 33 -140 134 -265 192 -431 198 l-90 4 51
-18 c59 -21 103 -47 238 -139 105 -72 130 -98 78 -84 -16 5 -40 14 -53 21 -13
7 -19 8 -14 3 25 -23 103 -81 135 -100 40 -25 89 -73 73 -73 -17 0 -164 98
-208 139 -59 54 51 -65 166 -179 90 -90 154 -173 193 -248 32 -62 10 -43 -47
42 -53 77 -231 256 -243 243 -3 -2 13 -25 35 -51 40 -46 127 -170 151 -217 13
-23 12 -23 -5 -9 -16 13 -15 9 4 -22 29 -49 21 -49 -16 0 -46 63 -145 168
-137 147 4 -11 51 -78 104 -150 95 -127 156 -232 121 -211 -5 4 -7 -3 -4 -15
4 -13 8 -17 13 -9 16 26 70 -243 70 -350 0 -119 -54 -364 -85 -390 -8 -7 -15
-17 -15 -22 0 -17 -32 -81 -57 -116 -31 -41 -76 -64 -119 -60 l-35 3 -54 -128
c-29 -70 -71 -158 -94 -195 -124 -206 -515 -539 -752 -639 -59 -25 -75 -28
-194 -28 -122 0 -134 2 -186 27 -167 82 -524 481 -616 687 -39 88 -103 295
-93 301 5 3 -2 27 -16 54 -28 55 -24 61 45 86 63 22 199 99 260 148 32 26 80
72 105 102 83 97 72 97 -20 1 -49 -51 -114 -111 -146 -132 -63 -43 -233 -129
-255 -129 -23 0 -27 30 -7 45 11 8 14 15 8 15 -6 0 -19 -9 -29 -20 -19 -21
-41 -28 -29 -8 5 8 2 9 -10 5 -9 -4 -14 -3 -11 2 8 14 73 33 85 26 22 -14 185
96 336 226 75 64 90 72 127 73 28 1 41 5 39 14 -1 7 5 15 13 18 8 3 13 10 10
14 -3 4 3 14 13 21 15 13 16 12 3 -3 -17 -23 -3 -23 21 -1 15 13 23 14 43 5
42 -19 28 1 -25 37 -50 34 -50 35 -32 55 81 91 207 321 283 516 52 134 77 184
63 125 -31 -133 -151 -438 -183 -465 -10 -9 -21 -27 -24 -40 -4 -14 -27 -61
-52 -105 -36 -65 -39 -73 -15 -45 76 91 208 373 267 574 64 219 83 276 130
384 68 155 115 221 183 255 69 34 149 50 265 51 76 2 97 6 134 26 123 69 148
209 48 270 -41 25 -116 25 -179 0z m121 -54 c15 -8 33 -27 40 -43 12 -26 10
-26 -17 7 -26 30 -37 35 -88 41 l-59 6 48 2 c26 0 60 -5 76 -13z m1151 -1201
c0 -8 -5 -15 -11 -15 -6 0 -8 -8 -4 -19 3 -11 1 -23 -6 -27 -7 -4 -10 -2 -7 7
3 8 1 22 -4 33 -7 13 -7 16 1 12 6 -4 11 0 11 8 0 9 5 16 10 16 6 0 10 -7 10
-15z m-13 -107 c-3 -7 -5 -2 -5 12 0 14 2 19 5 13 2 -7 2 -19 0 -25z m-368
-75 c24 -72 26 -362 3 -338 -9 8 -29 375 -21 375 3 0 11 -17 18 -37z m-1884
-253 c3 -6 -1 -7 -9 -4 -18 7 -21 14 -7 14 6 0 13 -4 16 -10z m1846 -386 c-46
-116 -147 -270 -224 -341 -71 -64 -137 -117 -137 -108 0 4 32 41 71 83 39 43
83 102 99 132 34 66 84 151 77 130 -3 -8 -12 -32 -21 -52 -9 -21 -15 -38 -13
-38 2 0 25 36 51 80 44 74 67 102 52 64 -3 -8 -2 -13 3 -10 5 4 19 31 32 61
12 30 24 53 26 51 2 -2 -5 -25 -16 -52z m406 24 c-3 -8 -6 -5 -6 6 -1 11 2 17
5 13 3 -3 4 -12 1 -19z m-2750 -665 c-2 -32 -3 -8 -3 52 0 61 1 87 3 58 2 -29
2 -78 0 -110z m238 -14 c75 -146 90 -394 34 -584 -25 -86 -93 -215 -153 -293
-50 -65 -208 -207 -301 -269 -84 -57 -267 -147 -358 -177 -318 -104 -629 -113
-898 -27 -346 111 -566 423 -509 721 41 217 258 394 547 445 48 9 189 20 313
25 184 7 242 13 316 32 l92 24 -5 -25 c-2 -14 -9 -31 -14 -38 -14 -16 61 -9
98 10 79 41 93 29 37 -32 l-35 -40 28 -3 c26 -3 22 -6 -41 -42 -99 -57 -190
-89 -376 -136 -245 -61 -326 -87 -423 -137 -106 -55 -173 -117 -213 -198 -26
-53 -29 -71 -29 -150 0 -78 4 -98 27 -146 32 -64 123 -156 187 -188 85 -44
186 -63 361 -68 128 -4 185 -2 255 11 260 48 510 174 693 350 113 108 173 190
236 321 85 174 113 318 96 493 -8 86 -30 194 -46 226 -17 34 61 -67 81 -105z
m-1986 -74 c-3 -2 -36 -11 -75 -20 -38 -8 -80 -17 -94 -20 -22 -6 -23 -5 -7 5
28 18 191 50 176 35z m4102 -22 c-9 -18 -104 -109 -175 -169 -68 -59 -253
-143 -217 -100 6 7 68 51 138 99 70 48 157 109 193 136 75 57 74 56 61 34z
m-111 -59 c-14 -16 -50 -38 -50 -30 0 9 43 46 53 46 5 0 4 -7 -3 -16z m50 -74
c-20 -13 -33 -13 -25 0 3 6 14 10 23 10 15 0 15 -2 2 -10z m-2260 -132 c-41
-157 -117 -293 -250 -448 -69 -80 -81 -100 -59 -100 6 0 9 -12 7 -27 -4 -39
-113 -119 -253 -188 -265 -131 -602 -163 -775 -75 -36 19 -56 41 -114 132 -42
65 -15 167 57 219 46 33 66 37 64 12 0 -10 8 -31 18 -46 13 -21 24 -27 39 -23
16 4 24 -1 31 -17 18 -41 60 -52 195 -52 108 1 137 5 215 29 93 29 233 95 320
151 28 17 62 38 75 45 23 12 24 12 11 -4 -13 -15 -11 -16 22 -13 42 5 42 5 23
-31 -32 -58 -130 -138 -241 -196 -125 -65 -105 -67 26 -2 77 38 192 114 316
209 108 82 226 292 274 487 7 30 15 47 17 38 2 -10 -6 -55 -18 -100z m-2100
88 c0 -2 -17 -16 -37 -31 l-38 -27 33 31 c30 29 42 37 42 27z m2550 -136 c0
-13 -1 -13 -10 0 -5 8 -10 22 -10 30 0 13 1 13 10 0 5 -8 10 -22 10 -30z m-73
-97 c-2 -21 -4 -6 -4 32 0 39 2 55 4 38 2 -18 2 -50 0 -70z m122 -2 c21 -64
13 -146 -24 -257 -19 -58 -44 -114 -55 -127 -21 -22 -21 -22 0 26 47 107 72
217 67 297 -2 41 -8 84 -12 95 -5 13 -5 17 2 10 6 -5 15 -25 22 -44z m-132
-63 c-3 -8 -6 -5 -6 6 -1 11 2 17 5 13 3 -3 4 -12 1 -19z m64 -57 c-13 -51
-52 -154 -57 -148 -2 1 10 44 26 95 17 51 31 102 31 115 1 18 2 19 6 3 3 -10
0 -39 -6 -65z m-615 -526 c-13 -14 -30 -25 -37 -25 -8 1 -1 12 16 25 39 32 51
32 21 0z"/>
<path d="M7582 4797 c-51 -11 -90 -22 -88 -24 6 -6 177 27 196 37 22 14 2 11
-108 -13z"/>
<path d="M9134 8578 l-19 -23 23 19 c21 18 27 26 19 26 -2 0 -12 -10 -23 -22z"/>
<path d="M8000 8419 c-106 -73 -254 -128 -355 -130 -44 -1 -46 -2 -16 -8 27
-5 31 -8 20 -17 -8 -6 -21 -14 -29 -18 -39 -16 142 5 194 23 79 28 175 92 209
141 16 22 27 40 25 40 -2 0 -23 -14 -48 -31z"/>
<path d="M10405 8413 l-50 -18 105 -6 c128 -8 201 -27 277 -70 71 -40 194
-161 253 -248 47 -70 150 -281 195 -401 16 -41 34 -81 39 -89 6 -8 16 -26 23
-40 18 -41 16 -1 -6 106 -29 140 -64 239 -121 338 -132 229 -267 358 -431 410
-106 33 -218 40 -284 18z"/>
<path d="M11060 8282 c0 -12 39 -82 46 -82 4 0 -34 80 -42 89 -2 2 -4 -1 -4
-7z"/>
<path d="M7160 8274 c0 -14 44 -80 79 -117 84 -91 264 -124 414 -77 68 21 92
39 28 20 -24 -7 -39 -6 -52 3 -17 12 -15 14 17 26 20 7 34 15 31 17 -2 2 -24
-3 -48 -11 -24 -9 -66 -20 -94 -25 l-50 -9 49 3 c30 3 44 1 35 -5 -8 -5 -29
-9 -47 -9 -20 0 -31 -4 -27 -10 7 -12 -58 -12 -95 0 -20 6 -14 8 30 10 l55 2
-65 12 c-117 22 -202 73 -240 145 -10 20 -19 31 -20 25z"/>
<path d="M7528 8243 c6 -2 18 -2 25 0 6 3 1 5 -13 5 -14 0 -19 -2 -12 -5z"/>
<path d="M7781 8210 c-72 -45 -92 -60 -44 -36 17 9 38 13 46 10 7 -2 20 2 27
11 7 8 9 15 4 15 -5 0 2 9 16 20 38 30 21 23 -49 -20z"/>
<path d="M7805 8150 c-16 -11 -25 -20 -19 -20 11 0 64 39 54 40 -3 0 -18 -9
-35 -20z"/>
<path d="M8557 8039 c-21 -17 -90 -93 -155 -168 -155 -182 -366 -396 -477
-486 -188 -152 -476 -321 -656 -383 -125 -44 -279 -66 -417 -59 -62 3 -118 10
-125 15 -7 5 -40 9 -73 9 -86 2 -211 26 -419 83 -312 85 -384 101 -420 94 -36
-6 -78 3 -70 15 4 8 -65 21 -104 21 -14 0 -14 -2 -1 -11 12 -8 9 -10 -13 -6
-17 3 -25 1 -20 -4 5 -5 45 -16 89 -24 127 -25 411 -107 524 -152 41 -17 100
-38 130 -48 30 -10 86 -33 123 -52 74 -37 177 -77 322 -124 223 -73 517 -104
740 -79 201 23 443 95 459 136 7 19 1 18 -20 -3 -21 -21 -65 -25 -82 -7 -10
11 -6 18 26 39 20 13 53 28 72 31 19 4 58 20 87 35 29 16 63 29 77 29 14 0 27
4 30 9 4 5 41 33 84 62 107 73 216 166 287 246 l59 68 -90 -85 c-109 -103
-175 -154 -285 -220 -246 -147 -465 -224 -724 -255 -222 -26 -440 -17 -623 26
-139 32 -171 60 -36 32 113 -24 472 -23 604 1 150 27 383 106 366 124 -4 3 8
14 26 24 18 9 27 17 21 18 -7 0 -13 7 -13 15 0 8 -5 15 -11 15 -5 0 -7 -5 -3
-12 4 -6 3 -8 -3 -5 -5 3 -70 -14 -144 -38 -215 -70 -343 -89 -599 -89 -219 1
-306 12 -432 57 -69 25 -49 24 69 -2 107 -23 139 -26 343 -26 171 0 248 5 320
18 234 43 466 131 631 239 203 133 440 351 592 546 79 101 211 286 192 269 -5
-4 -14 2 -20 13 -11 20 -16 16 -86 -65 -80 -94 -129 -148 -116 -128 5 7 3 21
-6 33 -11 16 -16 18 -20 8 -4 -9 -6 -7 -6 5 -1 9 -6 17 -11 17 -14 0 -3 45 26
103 13 26 22 47 19 47 -3 0 -1 8 4 18 20 37 -4 43 -42 11z"/>
<path d="M8891 7958 c-34 -55 -108 -156 -222 -306 -74 -97 -206 -239 -189
-205 20 42 9 36 -67 -38 -139 -135 -300 -254 -441 -329 -34 -18 -61 -35 -58
-37 7 -7 130 38 176 65 25 15 57 33 72 42 139 78 315 230 432 374 129 159 268
357 325 464 22 41 4 22 -28 -30z"/>
<path d="M10620 7956 c0 -2 7 -9 15 -16 13 -11 14 -10 9 4 -5 14 -24 23 -24
12z"/>
<path d="M6692 7825 c0 -16 2 -22 5 -12 2 9 2 23 0 30 -3 6 -5 -1 -5 -18z"/>
<path d="M8619 7623 l-24 -28 28 24 c15 14 27 26 27 28 0 8 -8 1 -31 -24z"/>
<path d="M12262 7602 c-2 -35 -24 -85 -50 -115 -9 -10 -21 -33 -27 -50 -9 -28
-14 -32 -43 -29 -34 4 -40 -5 -19 -27 10 -11 6 -12 -23 -7 -30 6 -26 2 30 -29
36 -19 79 -50 95 -67 l30 -32 -40 34 c-21 18 -68 47 -104 63 -56 26 -75 30
-151 30 -81 0 -91 -2 -139 -31 -28 -18 -57 -32 -64 -32 -13 0 -58 -44 -88 -85
-13 -19 -13 -19 5 -5 19 15 19 14 2 -12 -18 -28 -34 -40 -20 -15 5 9 4 9 -5 1
-36 -33 -70 -208 -53 -280 5 -24 6 -48 1 -55 -5 -8 -9 -10 -9 -6 0 5 -5 39
-10 76 -15 92 0 205 36 279 34 70 113 151 185 188 51 27 61 29 175 29 133 0
148 6 180 67 23 44 16 43 -19 -3 l-33 -43 -109 -1 c-89 -1 -121 -5 -166 -23
-82 -33 -145 -78 -189 -136 -104 -138 -130 -260 -95 -443 50 -262 -15 -506
-228 -853 -22 -36 -61 -103 -87 -150 -26 -47 -70 -110 -98 -140 -28 -30 -88
-98 -134 -151 -46 -53 -183 -203 -304 -335 -329 -355 -529 -593 -512 -609 3
-3 48 29 99 71 141 116 135 111 123 94 -6 -8 -38 -50 -72 -92 -93 -117 -82
-127 50 -45 142 89 410 301 712 562 77 66 181 155 232 198 51 42 101 87 111
100 26 32 125 97 148 97 61 0 168 55 290 150 150 116 315 172 560 190 72 5
153 14 179 20 168 37 306 173 351 345 21 83 19 150 -9 246 -22 77 -23 86 -9
113 20 38 68 82 118 108 22 12 54 31 71 44 17 13 44 25 60 25 27 2 27 2 4 6
-14 3 -45 23 -69 46 -24 23 -41 36 -37 29 14 -24 -3 -62 -27 -62 -12 -1 -33
-8 -47 -16 -16 -10 -18 -13 -5 -8 11 4 34 9 50 12 30 4 30 4 10 -15 -22 -21
-132 -93 -142 -93 -3 0 -21 -12 -40 -26 -18 -14 -42 -26 -53 -27 -27 -2 -26
-7 14 -66 52 -78 69 -139 64 -236 -6 -111 -38 -177 -132 -270 -77 -77 -133
-104 -229 -112 -29 -2 -58 -6 -65 -8 -17 -6 -111 19 -153 40 -39 20 -86 61
-102 90 -7 13 2 9 27 -12 45 -40 113 -76 127 -67 5 3 31 1 57 -5 54 -13 146 2
225 37 63 28 144 111 192 197 35 63 39 77 39 140 0 41 -7 91 -17 121 -17 50
-61 119 -75 119 -10 0 -82 45 -82 51 0 6 13 -1 55 -30 l30 -20 -18 21 c-10 12
-41 31 -69 43 -68 29 -233 30 -309 1 -59 -23 -122 -68 -113 -82 3 -5 0 -8 -7
-7 -18 4 -75 -74 -100 -139 -17 -45 -23 -83 -25 -168 -3 -102 9 -209 26 -228
4 -5 -1 -25 -10 -45 -13 -27 -15 -39 -7 -44 9 -6 8 -11 -3 -18 -13 -8 -12 -10
5 -11 11 0 -2 -9 -30 -19 -55 -20 -79 -24 -71 -12 3 5 -8 6 -25 4 -28 -4 -41
-22 -16 -22 6 -1 -1 -8 -18 -16 -16 -9 -57 -33 -90 -55 -33 -21 -76 -41 -95
-44 -19 -3 -42 -8 -52 -11 -21 -6 -32 -35 -17 -45 7 -4 -16 -22 -57 -45 -38
-21 -84 -48 -102 -60 -18 -13 -54 -30 -80 -38 -29 -10 -73 -40 -117 -79 -39
-34 -93 -80 -120 -102 -28 -22 -102 -85 -165 -140 -63 -55 -135 -116 -160
-135 -25 -19 -76 -61 -113 -93 -37 -31 -73 -54 -79 -51 -6 4 -8 3 -5 -2 3 -6
-20 -31 -51 -56 -127 -103 -222 -177 -279 -216 -33 -22 -71 -54 -84 -69 -29
-34 -71 -67 -53 -43 84 117 262 351 340 446 54 67 148 184 209 260 60 77 164
202 230 279 66 77 138 169 159 205 56 94 85 138 134 202 24 31 41 61 37 67 -3
6 10 39 29 73 39 70 117 244 146 326 11 29 22 80 25 115 4 34 11 78 16 97 5
20 5 59 0 88 -4 28 -7 52 -5 52 1 0 19 -22 39 -50 27 -37 53 -58 103 -82 61
-30 74 -33 162 -33 85 0 101 3 153 29 71 36 135 103 179 187 31 60 33 70 33
166 0 56 2 100 4 98 2 -2 7 -19 11 -37 l8 -33 1 33 c1 19 -13 68 -29 109 -17
42 -29 78 -26 80 10 10 68 -77 81 -121 17 -55 21 -166 6 -150 -5 5 -11 23 -14
39 -2 17 -5 1 -6 -35 -2 -86 -16 -134 -60 -200 -81 -123 -186 -191 -327 -211
-152 -22 -226 -78 -295 -224 -47 -99 -71 -173 -106 -330 -12 -51 -23 -79 -31
-77 -7 1 -12 -9 -12 -27 0 -16 -11 -39 -25 -56 -27 -28 -47 -29 -125 -11 -14
4 -32 2 -40 -4 -13 -9 -13 -11 0 -20 8 -5 39 -18 68 -27 28 -9 52 -20 52 -24
0 -4 -18 -37 -41 -74 -22 -37 -39 -76 -37 -88 2 -16 11 -6 35 43 18 36 61 100
97 143 97 116 107 137 128 259 18 107 41 172 73 198 17 14 75 20 75 8 0 -4 10
-3 23 1 12 5 20 15 18 23 -2 7 -3 23 -3 36 2 29 -17 28 -51 -4 -16 -14 -31
-23 -35 -20 -13 14 20 102 51 135 42 44 93 66 202 86 158 29 270 99 346 218
52 80 73 154 73 257 0 108 -21 171 -86 258 -58 76 -67 113 -44 174 11 29 16
64 13 103 -2 33 -4 45 -5 27z m-179 -288 c61 -20 131 -84 165 -148 23 -43 27
-64 27 -136 0 -72 -4 -94 -27 -142 -33 -70 -106 -145 -173 -178 -41 -20 -65
-25 -135 -25 -77 0 -90 3 -140 31 -106 60 -171 187 -156 308 10 80 67 187 122
233 84 68 215 92 317 57z m-353 -37 c0 -2 -10 -12 -22 -23 l-23 -19 19 23 c18
21 26 27 26 19z m964 -616 c60 -26 113 -76 144 -135 22 -42 27 -64 27 -127 -1
-64 -5 -85 -32 -140 -38 -76 -99 -141 -168 -177 -43 -23 -62 -26 -145 -27 -92
0 -98 1 -154 35 -103 62 -153 163 -143 286 14 184 182 324 370 309 33 -3 78
-13 101 -24z m245 -225 c1 -68 -5 -55 -12 24 -3 38 -1 57 3 45 5 -11 9 -42 9
-69z m-554 -394 c-3 -3 -11 0 -18 7 -9 10 -8 11 6 5 10 -3 15 -9 12 -12z
m-1576 -729 c-47 -59 -453 -523 -517 -592 -81 -85 -17 7 86 125 123 142 435
484 440 484 3 0 -2 -8 -9 -17z"/>
<path d="M10460 7598 c0 -3 18 -44 40 -90 60 -126 73 -200 67 -408 -4 -160 -7
-184 -36 -278 -38 -125 -76 -211 -128 -288 -49 -73 -55 -84 -49 -84 3 0 31 39
63 88 32 48 73 107 91 131 56 74 85 145 130 311 l9 35 19 -60 c13 -43 19 -88
18 -155 0 -57 2 -83 7 -65 16 69 9 225 -16 362 -29 155 -54 240 -98 328 -34
68 -117 191 -117 173z"/>
<path d="M9930 7501 c-25 -5 -63 -14 -85 -20 -22 -6 -59 -11 -82 -11 -55 0
-122 -26 -151 -59 -13 -14 -21 -20 -17 -13 3 6 3 12 0 12 -8 0 -45 -81 -45
-100 0 -9 3 -11 8 -5 4 6 32 10 63 11 32 1 117 18 200 42 193 55 255 65 346
60 83 -5 159 -32 202 -71 l24 -22 -12 22 c-17 34 -91 92 -160 126 -56 27 -76
31 -155 33 -50 2 -111 -1 -136 -5z"/>
<path d="M9552 7385 c-7 -14 -12 -31 -12 -38 1 -7 7 3 16 22 17 39 13 54 -4
16z"/>
<path d="M6692 7370 c0 -14 2 -19 5 -12 2 6 2 18 0 25 -3 6 -5 1 -5 -13z"/>
<path d="M12038 7383 c7 -3 16 -2 19 1 4 3 -2 6 -13 5 -11 0 -14 -3 -6 -6z"/>
<path d="M9522 7310 c0 -14 2 -19 5 -12 2 6 2 18 0 25 -3 6 -5 1 -5 -13z"/>
<path d="M5463 7183 c26 -2 67 -2 90 0 23 2 2 3 -48 3 -49 0 -68 -1 -42 -3z"/>
<path d="M5275 7170 c-28 -7 -28 -8 10 -8 22 0 54 4 70 8 28 7 28 8 -10 8 -22
0 -53 -4 -70 -8z"/>
<path d="M10124 7161 c14 -15 14 -23 3 -62 -28 -98 -152 -131 -345 -93 -91 19
-138 12 -184 -25 l-23 -19 63 5 c62 6 74 -1 50 -25 -10 -10 -5 -11 20 -6 27 5
31 4 26 -9 -4 -12 -1 -14 16 -10 20 5 21 4 11 -16 -14 -25 -6 -27 16 -5 12 12
18 12 23 3 4 -6 13 -8 20 -4 7 4 16 1 22 -6 7 -10 11 -11 14 -2 4 8 11 6 25
-8 10 -10 29 -19 40 -19 19 0 20 2 8 18 -13 16 -13 16 5 2 11 -8 27 -14 38
-12 10 2 18 -2 18 -9 0 -8 -19 -10 -65 -7 -36 2 -65 1 -65 -4 0 -9 152 -2 210
10 25 5 38 11 30 12 -8 1 1 6 20 10 l35 7 -31 2 c-17 0 -37 8 -44 16 -11 14
-10 14 14 5 33 -12 162 -13 131 -1 -19 8 -18 9 5 13 21 4 19 6 -10 8 -33 2
-33 3 -10 10 14 4 39 8 56 9 18 1 42 10 55 22 13 11 17 17 9 13 -17 -9 -78 -6
-98 5 -11 6 -4 15 27 40 23 18 46 42 52 53 10 18 9 19 -12 8 -17 -9 -23 -9
-29 0 -4 7 -42 30 -85 50 -46 23 -70 32 -61 21z m-69 -279 c-3 -3 -11 0 -18 7
-9 10 -8 11 6 5 10 -3 15 -9 12 -12z m-22 -19 c-7 -2 -19 -2 -25 0 -7 3 -2 5
12 5 14 0 19 -2 13 -5z"/>
<path d="M5218 7153 c7 -3 16 -2 19 1 4 3 -2 6 -13 5 -11 0 -14 -3 -6 -6z"/>
<path d="M5178 7143 c7 -3 16 -2 19 1 4 3 -2 6 -13 5 -11 0 -14 -3 -6 -6z"/>
<path d="M9164 7125 c21 -85 28 -120 35 -190 l8 -80 1 60 c2 64 -20 184 -38
212 -10 16 -10 16 -6 -2z"/>
<path d="M5070 7110 c-8 -5 -10 -10 -5 -10 6 0 17 5 25 10 8 5 11 10 5 10 -5
0 -17 -5 -25 -10z"/>
<path d="M4930 7044 c-69 -39 -176 -130 -222 -187 -43 -55 -103 -172 -113
-222 -3 -16 8 1 25 40 59 132 159 237 312 327 50 30 71 46 53 42 -27 -7 -29
-6 -16 9 18 22 14 21 -39 -9z"/>
<path d="M4285 6923 c-20 -67 -34 -293 -17 -293 5 0 24 -53 42 -117 17 -65 43
-147 57 -183 34 -87 128 -274 166 -330 46 -67 231 -288 254 -303 7 -4 25 -29
40 -55 15 -26 40 -65 56 -87 22 -31 28 -34 22 -15 -18 61 -77 150 -250 380
-176 233 -233 334 -301 534 -60 175 -80 359 -53 475 14 64 5 60 -16 -6z"/>
<path d="M6350 6845 c14 -8 30 -14 35 -14 6 0 -1 6 -15 14 -14 8 -29 14 -35
14 -5 0 1 -6 15 -14z"/>
<path d="M8015 6820 c-3 -6 1 -7 9 -4 18 7 21 14 7 14 -6 0 -13 -4 -16 -10z"/>
<path d="M12923 6789 c-35 -22 -46 -37 -15 -20 22 13 58 40 52 41 -3 0 -20
-10 -37 -21z"/>
<path d="M12473 6786 c-87 -22 -156 -62 -220 -129 -107 -111 -143 -210 -143
-393 0 -84 -4 -112 -20 -143 -28 -56 -151 -164 -235 -207 -61 -30 -84 -37
-142 -38 -38 -1 -80 -8 -94 -16 -40 -22 -261 -238 -251 -244 5 -3 57 41 115
99 126 123 152 140 205 126 22 -6 51 -6 72 -2 19 5 31 10 25 10 -5 1 22 17 60
35 129 61 261 184 296 276 19 51 20 61 8 132 -10 62 -10 88 0 135 52 234 311
404 512 338 30 -10 82 -31 117 -46 34 -16 62 -24 62 -19 0 6 -4 10 -10 10 -21
0 -8 19 20 29 17 5 30 12 30 15 0 3 -14 0 -30 -6 -25 -8 -43 -6 -103 17 -86
32 -197 41 -274 21z"/>
<path d="M5740 6781 l-35 -6 30 -12 c17 -6 38 -14 48 -17 29 -9 20 -24 -30
-50 l-48 -25 179 -1 c213 0 337 -21 572 -98 225 -73 559 -195 546 -200 -15 -5
-16 -54 -2 -68 6 -6 -35 -3 -97 7 -60 9 -109 16 -111 14 -6 -5 123 -49 252
-84 98 -27 131 -39 120 -46 -19 -12 -25 -47 -10 -58 17 -13 -128 2 -233 24
-51 11 -190 51 -309 89 -118 39 -217 68 -219 67 -7 -8 122 -58 397 -152 118
-41 412 -115 456 -115 3 0 3 -4 -1 -9 -3 -5 -1 -12 5 -16 6 -4 8 -10 5 -14
-17 -28 301 -29 407 -2 202 52 405 216 538 435 27 45 29 45 -70 6 -152 -59
-440 -91 -642 -71 -232 23 -431 75 -802 213 -436 161 -750 224 -946 189z"/>
<path d="M10521 6624 c-6 -21 -9 -40 -6 -42 2 -2 8 13 14 34 6 21 9 40 6 42
-2 2 -8 -13 -14 -34z"/>
<path d="M4124 6523 c-14 -44 -19 -86 -18 -173 1 -109 9 -161 49 -308 9 -35
15 -68 12 -75 -2 -6 -27 27 -56 73 -57 93 -98 210 -111 310 -6 52 -8 56 -9 24
0 -23 9 -88 20 -145 47 -230 144 -407 336 -611 90 -95 89 -98 -7 -17 -245 206
-506 288 -681 216 -32 -13 -25 -14 86 -13 107 0 128 -3 188 -27 87 -34 194
-90 232 -122 l30 -25 -30 15 c-27 13 -30 13 -33 -1 -2 -9 2 -20 8 -24 7 -4 10
-12 6 -18 -3 -5 10 -23 29 -39 150 -121 315 -292 315 -328 0 -13 5 -27 10 -30
15 -9 12 -27 -2 -19 -7 4 0 -7 16 -24 34 -36 49 -44 20 -10 l-19 22 30 -18
c17 -10 43 -32 59 -47 15 -16 32 -27 36 -24 4 3 8 -6 8 -20 0 -15 -5 -22 -12
-19 -20 10 152 -144 244 -218 30 -24 91 -66 135 -93 86 -52 267 -145 281 -145
5 1 -41 26 -101 58 -61 31 -142 80 -179 107 -38 28 -94 68 -126 90 -33 22 -76
58 -97 81 -21 22 -45 45 -53 50 -17 10 -75 104 -64 104 3 0 1 7 -6 15 -8 9 -8
15 -2 15 6 0 12 -4 14 -8 2 -4 43 -42 91 -84 96 -83 266 -203 337 -237 25 -12
37 -16 26 -9 -157 107 -358 276 -386 324 -12 22 -6 64 10 64 5 0 64 -48 131
-106 68 -58 184 -146 259 -196 122 -81 404 -230 568 -300 35 -15 61 -31 58
-36 -6 -10 116 -61 190 -81 77 -20 378 -81 476 -96 54 -8 135 -15 181 -15 46
0 113 -3 148 -7 55 -6 60 -8 34 -14 -51 -13 95 1 172 17 40 8 87 14 105 14 18
0 39 4 47 9 10 6 -38 10 -130 10 -79 1 -171 4 -204 7 -175 18 -473 123 -607
214 -261 177 -423 424 -457 700 -34 264 103 523 334 635 145 70 200 80 415 79
141 -1 212 -6 300 -22 371 -68 459 -81 580 -86 72 -3 136 -9 142 -12 31 -20
260 46 353 101 88 52 225 185 225 218 0 3 -33 -19 -72 -49 -40 -30 -110 -73
-154 -94 -345 -167 -678 -158 -1249 32 -326 108 -519 145 -703 135 -370 -21
-632 -249 -682 -596 -31 -206 54 -480 206 -670 159 -197 452 -379 759 -472 77
-23 174 -52 216 -64 73 -22 321 -61 479 -75 65 -6 68 -7 25 -8 -85 -3 -387 27
-491 48 -211 44 -615 198 -724 277 -13 10 -21 12 -16 6 11 -19 2 -16 -77 23
-216 109 -517 331 -762 563 -279 264 -458 459 -572 626 -32 46 -78 162 -96
240 -50 218 -57 310 -32 405 19 73 12 75 -11 3z m1946 -372 c-30 -9 -165 -22
-158 -16 6 7 113 22 153 23 29 0 29 0 5 -7z m-638 -623 c-1 -62 1 -108 5 -101
5 6 20 14 35 18 17 4 30 17 38 38 20 55 26 62 56 63 l29 1 0 -126 c0 -142 16
-209 85 -357 71 -153 283 -403 419 -495 44 -29 78 -55 76 -57 -6 -7 -251 128
-335 183 -107 72 -108 73 -90 50 29 -37 -16 -9 -102 64 -84 70 -102 91 -169
191 -62 93 -139 268 -139 315 0 6 15 16 33 23 l33 12 0 102 c0 82 15 188 27
188 1 0 1 -51 -1 -112z"/>
<path d="M5680 4815 c13 -14 26 -25 28 -25 3 0 -5 11 -18 25 -13 14 -26 25
-28 25 -3 0 5 -11 18 -25z"/>
<path d="M10481 6509 c-6 -18 -9 -34 -7 -36 2 -2 9 10 15 28 6 18 9 34 7 36
-2 2 -9 -10 -15 -28z"/>
<path d="M3992 6440 c0 -14 2 -19 5 -12 2 6 2 18 0 25 -3 6 -5 1 -5 -13z"/>
<path d="M5730 6425 c-219 -35 -415 -153 -531 -318 -50 -72 -104 -195 -115
-266 -7 -42 -24 -67 -24 -34 0 33 30 145 55 208 l26 63 -47 46 c-37 38 -49 44
-60 35 -12 -10 -13 -8 -9 7 4 10 -3 2 -15 -19 -47 -85 -63 -179 -63 -367 1
-96 -1 -170 -3 -165 -2 6 -10 42 -17 80 l-13 70 -11 -33 c-8 -22 -9 -30 -2
-26 8 4 9 -1 4 -16 -5 -17 -4 -21 5 -15 8 5 11 4 7 -2 -4 -6 19 -67 52 -134
41 -87 77 -146 121 -199 117 -140 155 -178 132 -132 -5 9 -12 32 -15 50 -4 18
-18 58 -33 90 -55 118 -64 173 -54 335 9 140 28 215 85 327 55 108 154 219
250 279 68 43 196 91 285 107 150 27 408 10 524 -35 16 -7 31 -10 33 -8 2 3
-15 12 -39 22 -133 53 -372 76 -528 50z"/>
<path d="M9050 6410 c11 -38 19 -50 32 -50 6 0 4 8 -5 18 -10 10 -17 28 -17
40 0 12 -4 22 -9 22 -6 0 -6 -12 -1 -30z"/>
<path d="M9137 6413 c-11 -11 -8 -23 7 -23 7 0 25 -10 40 -21 38 -30 45 -15
11 21 -28 30 -45 36 -58 23z"/>
<path d="M9358 6404 c-41 -22 -34 -29 27 -30 58 0 74 15 36 36 -25 13 -30 12
-63 -6z"/>
<path d="M9499 6374 c-22 -25 -22 -26 -3 -16 12 6 24 18 28 27 8 21 3 19 -25
-11z"/>
<path d="M4206 6340 c11 -92 68 -266 107 -325 59 -88 133 -178 199 -240 205
-196 225 -206 57 -29 -185 194 -297 374 -344 554 -21 79 -24 86 -19 40z"/>
<path d="M12840 6198 c-12 -22 -12 -22 6 -6 10 10 15 20 12 24 -4 3 -12 -5
-18 -18z"/>
<path d="M9190 6160 c19 -4 49 -10 65 -14 27 -6 27 -5 -5 8 -19 8 -48 14 -65
14 -29 0 -29 -1 5 -8z"/>
<path d="M3518 6143 c7 -3 16 -2 19 1 4 3 -2 6 -13 5 -11 0 -14 -3 -6 -6z"/>
<path d="M4476 6008 c51 -100 154 -255 249 -372 44 -55 108 -134 141 -175 88
-108 127 -151 114 -123 -17 35 -128 193 -160 227 -15 17 -51 64 -80 105 -29
41 -72 98 -95 125 -52 63 -159 214 -180 255 -8 16 -18 30 -20 30 -3 0 11 -32
31 -72z"/>
<path d="M9167 6064 c-39 -21 -172 -37 -196 -24 -53 28 -55 1 -2 -28 26 -15
56 -22 92 -22 30 0 91 -7 137 -17 71 -14 98 -14 180 -5 53 7 135 14 181 17 87
6 173 37 154 56 -6 6 -20 6 -37 -1 -33 -12 -148 -12 -231 1 -70 11 -67 10
-123 3 -29 -4 -49 -1 -65 8 -35 23 -62 26 -90 12z m247 -51 c18 -10 18 -11 -3
-18 -55 -17 -177 -12 -241 11 -12 4 -12 6 -1 14 20 12 222 6 245 -7z"/>
<path d="M3311 5934 c0 -11 3 -14 6 -6 3 7 2 16 -1 19 -3 4 -6 -2 -5 -13z"/>
<path d="M4361 5888 c36 -52 210 -268 215 -268 9 0 -34 58 -133 183 -90 112
-129 153 -82 85z"/>
<path d="M9160 5801 c19 -11 58 -23 85 -27 42 -7 46 -9 25 -15 -17 -5 -7 -7
35 -8 42 0 56 2 45 9 -12 7 -8 10 15 11 17 0 48 9 70 20 22 11 31 16 20 12
-11 -3 -62 -8 -113 -11 -82 -3 -129 2 -198 23 -11 4 -3 -3 16 -14z"/>
<path d="M3563 5764 l-28 -25 33 22 c17 13 32 24 32 26 0 8 -11 1 -37 -23z"/>
<path d="M10319 5753 l-24 -27 33 23 c32 23 39 31 24 31 -5 0 -19 -12 -33 -27z"/>
<path d="M12834 5721 c4 -6 16 -11 28 -11 11 0 34 -10 51 -22 55 -38 63 -63
18 -53 -17 3 -32 2 -36 -5 -3 -5 -11 -8 -16 -5 -5 4 -9 3 -9 -2 0 -4 13 -15
29 -24 18 -11 30 -28 35 -49 8 -44 1 -49 -18 -12 -8 16 -30 42 -47 56 -25 22
-38 26 -63 20 -17 -3 -39 -13 -48 -21 -16 -14 -16 -19 7 -77 22 -58 214 -438
215 -425 0 4 -25 60 -56 125 -76 163 -85 184 -73 184 6 0 29 -39 51 -87 22
-49 65 -139 94 -202 30 -62 51 -118 48 -123 -4 -6 -10 -5 -16 3 -8 12 -9 11
-6 0 6 -20 27 -26 33 -8 4 8 -40 117 -96 243 -55 125 -110 250 -120 277 l-19
48 22 -3 c15 -2 37 -27 71 -83 57 -94 156 -289 182 -358 10 -26 20 -46 22 -43
6 5 -41 122 -106 263 -28 62 -51 117 -51 122 0 5 22 -1 49 -15 47 -22 51 -27
81 -105 38 -98 75 -252 66 -275 -3 -9 -12 -14 -21 -10 -9 3 -15 0 -15 -9 0
-23 28 -18 41 7 16 30 6 94 -35 224 -74 235 -147 399 -194 432 -32 24 -109 42
-98 23z m-19 -234 c13 -31 22 -57 19 -57 -5 0 -54 105 -54 117 0 13 10 -4 35
-60z"/>
<path d="M12798 5713 c7 -3 16 -2 19 1 4 3 -2 6 -13 5 -11 0 -14 -3 -6 -6z"/>
<path d="M12575 5629 c-88 -38 -204 -88 -258 -111 -53 -23 -95 -43 -93 -45 1
-2 79 29 172 68 93 39 198 84 234 99 36 15 79 34 95 43 63 34 4 13 -150 -54z"/>
<path d="M2768 5613 c7 -3 16 -2 19 1 4 3 -2 6 -13 5 -11 0 -14 -3 -6 -6z"/>
<path d="M3470 5570 c0 -63 18 -106 61 -145 l33 -30 -32 37 c-36 43 -56 107
-47 148 3 16 2 31 -4 35 -7 4 -11 -11 -11 -45z"/>
<path d="M2895 5576 c113 -37 241 -99 330 -159 33 -23 61 -40 63 -39 8 7 22 0
17 -8 -4 -6 -3 -10 2 -9 21 4 34 -2 27 -13 -4 -6 -3 -8 4 -4 6 3 23 -6 39 -20
15 -15 20 -21 11 -14 -10 7 -18 10 -18 6 0 -3 42 -37 93 -75 213 -158 438
-235 834 -286 128 -16 193 -33 174 -45 -6 -3 32 -19 86 -34 94 -27 109 -32
181 -62 100 -43 -57 65 -183 125 -141 68 -260 102 -410 116 -95 9 -325 71
-325 87 0 5 -4 7 -9 3 -13 -7 -101 34 -186 89 -78 49 -327 192 -391 225 -105
52 -385 152 -425 151 -7 -1 31 -16 86 -34z"/>
<path d="M12695 5571 c-11 -3 -29 -11 -39 -17 -19 -11 -19 -13 4 -65 31 -73
191 -399 196 -399 4 0 -57 143 -80 189 -20 38 -56 150 -55 171 0 8 6 -1 13
-20 8 -19 32 -75 56 -125 23 -49 67 -145 97 -213 31 -67 57 -121 59 -119 2 2
-33 89 -77 193 -45 104 -96 237 -114 296 -17 60 -33 109 -36 111 -2 2 -13 1
-24 -2z"/>
<path d="M11145 5545 c-27 -26 -33 -76 -12 -93 25 -21 66 -25 92 -8 14 9 25
22 25 28 0 6 -8 4 -18 -5 -21 -19 -57 -22 -67 -7 -4 6 -10 8 -15 5 -8 -5 -20
18 -20 38 1 23 29 49 62 57 32 8 32 8 5 9 -17 1 -37 -8 -52 -24z"/>
<path d="M11239 5546 c7 -8 16 -27 21 -43 l8 -28 1 31 c1 29 -14 54 -32 54 -5
0 -4 -6 2 -14z"/>
<path d="M12554 5520 c-12 -5 -25 -13 -29 -19 -8 -13 62 -163 104 -225 17 -25
55 -93 83 -151 28 -58 53 -103 55 -101 2 2 -32 78 -77 170 -111 229 -129 276
-104 276 8 0 14 -8 14 -18 0 -10 31 -79 70 -153 59 -116 180 -380 180 -394 0
-18 -23 1 -39 33 -25 45 -27 36 -4 -13 17 -36 39 -46 49 -22 2 7 -18 67 -47
133 -28 65 -64 156 -79 201 -16 45 -50 130 -75 188 -49 108 -55 114 -101 95z"/>
<path d="M2295 5508 c-22 -6 -63 -17 -91 -24 -54 -14 -97 -43 -115 -75 -9 -18
-6 -18 40 6 28 14 54 25 58 25 4 0 -19 -23 -51 -52 -61 -54 -106 -130 -106
-179 0 -28 45 -157 60 -173 5 -5 0 20 -11 55 -17 54 -18 71 -9 107 55 219 335
295 643 176 49 -19 169 -81 266 -138 355 -209 566 -295 764 -313 37 -3 67 -10
67 -15 0 -6 -20 -7 -47 -4 -27 3 -77 8 -113 12 -35 3 -91 15 -125 26 -54 18
-187 37 -175 25 3 -3 39 -15 80 -27 175 -50 193 -53 468 -54 152 0 247 2 225
7 -21 4 -87 17 -148 27 -136 24 -388 105 -509 164 -50 24 -174 95 -276 156
-226 136 -401 223 -506 251 -91 24 -323 35 -389 17z"/>
<path d="M11185 5470 c3 -5 10 -10 16 -10 5 0 9 5 9 10 0 6 -7 10 -16 10 -8 0
-12 -4 -9 -10z"/>
<path d="M12430 5465 c-14 -8 -31 -14 -39 -15 -8 0 -34 -12 -58 -26 l-44 -25
23 -39 c13 -21 42 -69 65 -107 36 -60 97 -187 158 -331 10 -23 20 -40 23 -37
6 6 -3 29 -110 270 -48 110 -87 204 -85 210 7 20 124 -221 199 -409 37 -92 49
-88 18 5 -23 69 -114 286 -160 383 -41 87 -25 105 18 20 19 -38 42 -78 52 -89
21 -24 181 -322 205 -382 17 -42 45 -57 60 -33 3 5 -22 72 -56 147 -33 76 -83
192 -109 258 -54 137 -98 215 -120 215 -8 -1 -26 -7 -40 -15z m58 -57 c19 -25
252 -514 252 -531 0 -52 -47 31 -97 173 -15 43 -21 53 -18 30 6 -44 -7 -26
-34 45 -10 28 -44 102 -75 166 -31 63 -56 118 -56 122 0 11 17 8 28 -5z"/>
<path d="M11917 5348 c-153 -66 -276 -123 -274 -125 4 -3 523 218 556 237 50
29 -34 -4 -282 -112z"/>
<path d="M12207 5374 c-20 -11 -27 -21 -22 -31 3 -9 10 -36 16 -61 5 -24 18
-61 29 -82 11 -21 38 -84 60 -141 23 -57 62 -152 87 -211 43 -99 51 -150 22
-132 -8 4 -9 3 -5 -4 4 -6 14 -8 22 -5 22 8 15 35 -41 178 -26 66 -62 163 -81
215 -19 52 -37 102 -40 110 -4 8 -8 24 -9 35 -1 11 -6 35 -10 53 -6 25 -4 32
7 32 8 0 20 -11 26 -25 14 -31 15 -46 2 -25 -8 12 -10 12 -10 1 0 -14 193
-432 197 -427 4 3 -36 104 -57 146 -26 51 -92 250 -87 264 2 6 10 -7 17 -29 7
-22 35 -85 61 -140 37 -78 129 -314 129 -332 0 -2 -7 -3 -16 -3 -8 0 -13 -4
-9 -10 3 -5 13 -6 21 -3 11 4 14 14 10 34 -6 32 -180 488 -202 530 -18 36 -27
38 -14 3 18 -47 10 -40 -18 16 -30 60 -43 67 -85 44z"/>
<path d="M12084 5317 c-34 -18 -76 -38 -94 -46 -22 -9 -30 -18 -27 -30 6 -19
230 -522 252 -566 32 -63 3 20 -51 145 -29 69 -67 165 -84 214 -18 49 -42 113
-55 143 -26 58 -16 82 14 33 10 -17 63 -123 117 -235 54 -113 99 -203 101
-202 4 5 -76 188 -88 203 -9 11 -45 109 -55 149 -3 11 5 2 17 -20 12 -22 28
-44 34 -50 7 -5 38 -73 70 -150 32 -77 64 -151 72 -165 18 -31 12 -15 -39 115
-22 55 -55 141 -73 191 -18 50 -47 119 -65 154 -25 50 -29 65 -18 71 21 14 26
11 39 -28 6 -21 40 -94 74 -163 34 -69 82 -169 105 -223 24 -53 44 -96 46 -94
5 5 -33 102 -66 168 -44 85 -69 153 -92 242 -20 79 -52 162 -66 171 -4 2 -35
-10 -68 -27z m16 -81 c0 -5 -7 -1 -15 10 -8 10 -14 24 -14 29 0 6 6 1 14 -9 8
-11 15 -24 15 -30z"/>
<path d="M3640 5287 c3 -3 23 -10 44 -16 22 -5 35 -6 30 -2 -9 9 -83 27 -74
18z"/>
<path d="M3740 5250 c8 -5 20 -10 25 -10 6 0 3 5 -5 10 -8 5 -19 10 -25 10 -5
0 -3 -5 5 -10z"/>
<path d="M11881 5229 c-30 -18 -32 -22 -18 -37 8 -9 26 -44 40 -77 25 -60 44
-105 156 -359 65 -150 72 -172 44 -161 -14 5 -15 3 -6 -6 6 -6 19 -9 27 -6 18
7 25 -13 -82 252 -65 161 -122 320 -122 339 0 34 96 -140 160 -292 41 -96 31
-47 -16 74 -55 145 -125 293 -139 294 -5 0 -25 -9 -44 -21z"/>
<path d="M11495 5166 c-212 -93 -245 -113 -262 -153 -12 -29 -12 -45 -3 -81
18 -74 87 -229 140 -317 98 -162 220 -303 220 -255 0 6 -17 45 -39 88 -21 42
-69 157 -105 254 -56 150 -65 183 -60 217 4 24 11 38 17 34 12 -7 123 -240
192 -401 26 -62 49 -111 51 -109 8 8 -183 468 -213 512 -7 11 -13 26 -13 34 0
13 2 13 15 1 17 -18 120 -244 177 -388 22 -57 42 -101 44 -99 2 2 -21 71 -52
153 -77 205 -124 344 -124 367 0 49 32 -7 115 -201 49 -116 91 -209 93 -208 1
2 -18 58 -43 124 -46 124 -53 149 -34 122 8 -11 9 -8 5 15 -5 26 -3 24 19 -15
13 -25 24 -52 24 -60 0 -8 -7 0 -15 18 -8 17 -16 32 -19 32 -10 0 -5 -16 17
-50 40 -63 142 -340 130 -352 -4 -4 -23 28 -41 72 -19 44 -35 79 -38 77 -4 -4
55 -148 66 -159 3 -4 13 -3 21 2 13 8 8 30 -34 147 -27 76 -66 192 -88 258
-58 175 -86 240 -100 238 -30 -4 -185 -73 -205 -92 -13 -11 -23 -28 -23 -39 0
-18 53 -155 140 -362 17 -41 48 -107 70 -147 28 -52 35 -73 25 -73 -8 0 -22
15 -31 33 -9 17 -47 75 -84 127 -100 141 -210 373 -210 443 0 57 27 78 212
162 95 43 175 80 177 82 16 12 -31 -5 -134 -51z m82 -168 c-3 -8 -6 -5 -6 6
-1 11 2 17 5 13 3 -3 4 -12 1 -19z"/>
<path d="M11748 5174 l-47 -24 63 -132 c78 -164 175 -355 176 -346 0 4 -15 42
-34 85 -78 181 -127 305 -123 309 10 11 176 -337 227 -479 10 -27 20 -45 23
-40 4 5 -9 43 -28 84 -18 41 -54 128 -80 194 -25 66 -64 164 -86 219 -40 98
-43 120 -15 97 14 -12 118 -219 181 -359 15 -34 30 -61 32 -58 5 5 -118 294
-169 394 -27 53 -47 82 -57 81 -9 -1 -37 -12 -63 -25z"/>
<path d="M5255 5115 c7 -33 21 -52 31 -42 4 3 -3 21 -16 39 l-22 33 7 -30z"/>
<path d="M11638 5123 c-21 -8 -38 -22 -38 -31 0 -8 20 -54 44 -102 24 -47 51
-113 61 -146 18 -64 117 -305 123 -300 1 2 -7 28 -19 57 -64 162 -89 235 -84
246 2 8 -7 48 -20 90 -14 41 -25 78 -25 82 1 18 25 -42 64 -161 41 -123 85
-235 86 -215 0 5 -18 61 -41 124 -54 154 -55 156 -19 93 17 -30 28 -46 24 -35
-4 11 -19 56 -34 100 -15 44 -39 106 -54 139 -14 32 -23 62 -20 67 7 12 -5 11
-48 -8z"/>
<path d="M2922 5099 c-194 -33 -290 -175 -210 -307 11 -18 30 -37 41 -43 17
-9 16 -5 -8 20 -27 29 -30 39 -30 96 0 61 2 66 39 104 58 60 110 76 236 76 97
-1 160 -12 275 -50 16 -6 17 -5 5 4 -13 9 -13 11 1 11 19 0 105 -16 134 -25
11 -3 -18 13 -64 35 -138 68 -303 99 -419 79z"/>
<path d="M12980 5074 c0 -6 7 -19 16 -30 14 -18 14 -18 3 6 -14 31 -19 36 -19
24z"/>
<path d="M2120 4996 c14 -15 39 -37 55 -49 36 -24 26 -14 -35 39 -30 25 -37
29 -20 10z"/>
<path d="M10614 4988 c-44 -51 -57 -68 -52 -68 3 0 22 20 42 45 38 46 45 63
10 23z"/>
<path d="M3300 4980 c8 -5 22 -9 30 -9 10 0 8 3 -5 9 -27 12 -43 12 -25 0z"/>
<path d="M12936 4950 c-15 -5 -16 -9 -7 -14 7 -5 18 -3 24 3 14 14 6 20 -17
11z"/>
<path d="M2020 4875 c0 -2 14 -14 31 -26 30 -21 30 -21 18 -1 -11 17 -49 38
-49 27z"/>
<path d="M11731 4845 c1 -19 18 -51 18 -35 0 8 -4 22 -9 30 -5 8 -9 11 -9 5z"/>
<path d="M12576 4837 c3 -10 9 -15 12 -12 3 3 0 11 -7 18 -10 9 -11 8 -5 -6z"/>
<path d="M4452 4815 c91 -30 293 -150 463 -275 282 -206 424 -283 650 -351
186 -55 304 -77 483 -89 255 -17 526 20 821 110 130 40 305 109 297 117 -2 2
-60 -9 -128 -26 -228 -55 -353 -71 -565 -71 -353 1 -677 85 -1213 315 -47 20
-80 32 -75 27 24 -24 294 -167 383 -203 102 -42 296 -101 372 -114 25 -5 39
-10 32 -12 -37 -13 -395 82 -542 144 -150 64 -152 64 -145 53 12 -19 -12 -9
-135 56 -69 37 -135 68 -147 69 -11 2 -73 35 -137 74 -197 121 -328 178 -446
195 -37 5 -31 2 32 -19z"/>
<path d="M2127 4799 c7 -7 15 -10 18 -7 3 3 -2 9 -12 12 -14 6 -15 5 -6 -5z"/>
<path d="M2175 4800 c3 -4 -1 -11 -7 -14 -7 -3 -2 -3 11 0 14 4 21 2 17 -4 -8
-13 72 -32 131 -31 l48 1 -58 9 c-32 5 -78 17 -103 28 -24 11 -42 16 -39 11z"/>
<path d="M12600 4800 c-13 -8 -12 -10 3 -10 9 0 17 5 17 10 0 12 -1 12 -20 0z"/>
<path d="M12121 4798 c-2 -13 82 -178 90 -178 4 0 11 5 14 10 3 6 0 10 -7 10
-8 0 -32 37 -55 83 -23 45 -42 79 -42 75z"/>
<path d="M2398 4763 c7 -3 16 -2 19 1 4 3 -2 6 -13 5 -11 0 -14 -3 -6 -6z"/>
<path d="M12260 4755 c0 -5 5 -17 10 -25 5 -8 10 -10 10 -5 0 6 -5 17 -10 25
-5 8 -10 11 -10 5z"/>
<path d="M11830 4748 c0 -14 50 -117 60 -123 6 -4 -3 22 -21 57 -32 63 -39 76
-39 66z"/>
<path d="M8485 4710 c-3 -6 1 -7 9 -4 18 7 21 14 7 14 -6 0 -13 -4 -16 -10z"/>
<path d="M12321 4691 c-1 -18 -5 -22 -18 -16 -15 5 -16 4 -5 -6 16 -17 36 2
29 27 -4 15 -5 14 -6 -5z"/>
<path d="M3708 4683 c12 -2 32 -2 45 0 12 2 2 4 -23 4 -25 0 -35 -2 -22 -4z"/>
<path d="M3498 4673 c7 -3 16 -2 19 1 4 3 -2 6 -13 5 -11 0 -14 -3 -6 -6z"/>
<path d="M3813 4673 c15 -2 37 -2 50 0 12 2 0 4 -28 4 -27 0 -38 -2 -22 -4z"/>
<path d="M3423 4663 c9 -2 23 -2 30 0 6 3 -1 5 -18 5 -16 0 -22 -2 -12 -5z"/>
<path d="M3913 4663 c9 -2 23 -2 30 0 6 3 -1 5 -18 5 -16 0 -22 -2 -12 -5z"/>
<path d="M3353 4653 c9 -2 25 -2 35 0 9 3 1 5 -18 5 -19 0 -27 -2 -17 -5z"/>
<path d="M3978 4653 c7 -3 16 -2 19 1 4 3 -2 6 -13 5 -11 0 -14 -3 -6 -6z"/>
<path d="M3298 4643 c6 -2 18 -2 25 0 6 3 1 5 -13 5 -14 0 -19 -2 -12 -5z"/>
<path d="M4028 4643 c7 -3 16 -2 19 1 4 3 -2 6 -13 5 -11 0 -14 -3 -6 -6z"/>
<path d="M3555 4625 c6 -2 78 -5 160 -8 87 -2 133 0 110 4 -38 7 -291 11 -270
4z"/>
<path d="M4098 4623 c7 -3 16 -2 19 1 4 3 -2 6 -13 5 -11 0 -14 -3 -6 -6z"/>
<path d="M10814 4608 c-30 -34 -47 -58 -42 -58 3 0 19 18 37 40 34 43 38 55 5
18z"/>
<path d="M3468 4613 c12 -2 30 -2 40 0 9 3 -1 5 -23 4 -22 0 -30 -2 -17 -4z"/>
<path d="M3403 4603 c9 -2 23 -2 30 0 6 3 -1 5 -18 5 -16 0 -22 -2 -12 -5z"/>
<path d="M3878 4603 c7 -3 16 -2 19 1 4 3 -2 6 -13 5 -11 0 -14 -3 -6 -6z"/>
<path d="M9895 4590 c10 -11 20 -20 23 -20 3 0 -3 9 -13 20 -10 11 -20 20 -23
20 -3 0 3 -9 13 -20z"/>
<path d="M3358 4593 c7 -3 16 -2 19 1 4 3 -2 6 -13 5 -11 0 -14 -3 -6 -6z"/>
<path d="M11970 4591 c0 -6 4 -13 10 -16 6 -3 7 1 4 9 -7 18 -14 21 -14 7z"/>
<path d="M3318 4583 c7 -3 16 -2 19 1 4 3 -2 6 -13 5 -11 0 -14 -3 -6 -6z"/>
<path d="M4970 4586 c0 -2 7 -7 16 -10 8 -3 12 -2 9 4 -6 10 -25 14 -25 6z"/>
<path d="M3020 4570 c-8 -5 -10 -10 -5 -10 6 0 17 5 25 10 8 5 11 10 5 10 -5
0 -17 -5 -25 -10z"/>
<path d="M2920 4530 c-8 -5 -10 -10 -5 -10 6 0 17 5 25 10 8 5 11 10 5 10 -5
0 -17 -5 -25 -10z"/>
<path d="M11922 4528 c5 -15 28 -23 28 -10 0 5 -7 13 -16 16 -10 4 -14 1 -12
-6z"/>
<path d="M2848 4499 c-21 -11 -38 -22 -38 -24 0 -5 79 32 89 41 12 11 -18 1
-51 -17z"/>
<path d="M11871 4506 c-1 -12 -6 -16 -16 -12 -17 6 -21 -9 -4 -20 15 -9 32 11
26 32 -5 19 -5 19 -6 0z"/>
<path d="M4345 4490 c10 -11 20 -20 23 -20 3 0 -3 9 -13 20 -10 11 -20 20 -23
20 -3 0 3 -9 13 -20z"/>
<path d="M4170 4465 c13 -14 26 -25 28 -25 3 0 -5 11 -18 25 -13 14 -26 25
-28 25 -3 0 5 -11 18 -25z"/>
<path d="M9789 4425 c-4 -46 -19 -102 -44 -165 -29 -74 -215 -459 -321 -665
-8 -16 -36 -72 -62 -124 l-47 -93 -100 -32 c-137 -45 -196 -77 -293 -160 -46
-39 -108 -91 -139 -116 -58 -47 -113 -110 -96 -110 6 0 38 18 72 40 34 22 66
40 71 40 6 0 40 21 77 47 75 51 163 94 267 129 38 13 71 24 72 24 1 0 -40 -88
-91 -195 -160 -332 -225 -522 -211 -618 13 -85 75 -147 148 -147 l36 0 -5 58
c-10 109 68 322 264 724 132 270 100 240 293 282 157 34 336 58 413 54 l64 -3
-59 -138 c-73 -173 -169 -453 -196 -572 -45 -198 -38 -286 27 -355 49 -52 126
-73 185 -50 30 11 35 40 8 40 -24 0 -50 29 -62 69 -22 78 53 370 174 681 104
268 128 320 146 320 36 0 111 -29 141 -54 38 -32 59 -21 59 30 0 47 -34 81
-107 107 l-62 23 99 199 c91 184 130 259 210 401 26 47 27 51 9 47 -10 -3 -19
-10 -19 -15 0 -5 -15 0 -34 12 -19 11 -37 16 -40 11 -3 -5 -15 -7 -26 -4 -11
3 -26 1 -33 -4 -6 -6 -22 -13 -34 -16 -22 -5 -22 -4 -7 24 8 16 17 29 20 29 3
0 3 -4 -1 -9 -3 -5 0 -13 6 -17 9 -5 10 1 5 20 -4 17 -1 35 10 51 9 14 15 27
13 30 -11 11 -333 -610 -379 -731 -8 -19 -19 -21 -142 -27 -130 -7 -243 -21
-402 -52 -44 -8 -81 -13 -83 -11 -3 2 16 45 41 95 45 89 66 111 116 126 78 24
341 203 311 213 -7 2 -38 -13 -68 -34 -57 -39 -264 -147 -270 -141 -2 2 29 71
68 153 39 82 88 190 110 239 40 95 75 213 65 223 -3 3 -6 -1 -6 -9 0 -12 -2
-11 -10 1 -9 13 -11 13 -20 0 -6 -10 -10 -11 -10 -2 0 7 -14 12 -35 12 -36 0
-90 42 -81 63 3 8 5 8 5 -1 1 -7 6 -10 11 -7 7 5 8 11 1 19 -5 6 -11 34 -13
61 -3 48 -3 47 -9 -20z"/>
<path d="M11660 4485 c0 -5 5 -17 10 -25 5 -8 10 -10 10 -5 0 6 -5 17 -10 25
-5 8 -10 11 -10 5z"/>
<path d="M2988 4464 c-16 -8 -28 -17 -28 -19 0 -6 32 6 55 22 26 18 7 16 -27
-3z"/>
<path d="M9963 4395 c0 -44 2 -61 4 -37 2 23 2 59 0 80 -2 20 -4 1 -4 -43z"/>
<path d="M2924 4424 c-18 -14 -18 -15 4 -4 12 6 22 13 22 15 0 8 -5 6 -26 -11z"/>
<path d="M11680 4418 c-1 -23 -1 -23 -17 -3 -14 18 -15 18 -9 2 3 -10 6 -21 6
-23 0 -2 7 -4 15 -4 9 0 15 9 15 25 0 14 -2 25 -5 25 -3 0 -5 -10 -5 -22z"/>
<path d="M2643 4372 c-148 -110 -256 -253 -289 -382 -11 -44 -15 -91 -12 -152
4 -79 7 -91 39 -138 40 -60 97 -100 150 -107 39 -6 69 8 69 31 -1 6 -15 20
-33 31 -18 11 -42 40 -55 65 -21 40 -23 55 -19 130 8 150 71 266 221 407 50
47 80 79 66 71 -27 -16 -38 -17 -57 -5 -12 8 -12 -17 0 -29 9 -10 -32 -54 -50
-54 -17 0 -17 17 0 23 9 4 8 6 -2 6 -11 1 -10 6 4 21 26 28 27 48 4 55 -29 10
-23 31 16 55 32 20 42 30 31 30 -2 0 -40 -26 -83 -58z m1 -161 c3 -4 -3 -16
-14 -26 -20 -18 -25 -11 -14 19 7 18 20 21 28 7z m-171 -83 c3 -11 0 -18 -9
-18 -8 0 -14 -4 -14 -10 0 -12 -27 -13 -34 -2 -8 13 20 49 38 49 8 0 17 -9 19
-19z"/>
<path d="M2869 4389 l-24 -20 28 17 c15 9 27 18 27 20 0 8 -8 4 -31 -17z"/>
<path d="M3458 4343 c7 -3 16 -2 19 1 4 3 -2 6 -13 5 -11 0 -14 -3 -6 -6z"/>
<path d="M4265 4231 c-1 -61 -6 -87 -28 -135 -15 -32 -24 -63 -20 -69 4 -6 1
-7 -7 -2 -10 6 -12 4 -7 -9 4 -9 3 -15 -1 -12 -4 2 -27 -19 -52 -48 -92 -107
-211 -195 -370 -275 -142 -72 -234 -98 -368 -105 -126 -7 -168 -20 -200 -61
-27 -34 -27 -45 -1 -79 27 -34 80 -34 209 -1 206 53 417 14 539 -100 153 -143
121 -364 -81 -564 -161 -160 -414 -281 -728 -348 -112 -25 -146 -27 -330 -27
-179 0 -216 2 -294 22 -227 57 -350 165 -350 307 -1 145 134 283 353 363 65
23 181 53 181 47 0 -2 -14 -46 -32 -97 -20 -59 -33 -120 -35 -168 -4 -67 -2
-79 19 -110 28 -41 65 -62 87 -50 10 5 21 35 29 76 13 67 81 253 122 334 l22
42 141 -5 c155 -5 232 -21 396 -83 51 -19 96 -32 99 -29 7 7 5 8 -73 47 -133
67 -302 113 -451 124 l-90 7 78 149 c65 123 164 293 358 612 13 23 17 36 9 29
-13 -11 -15 -8 -11 20 4 26 2 30 -9 20 -10 -10 -17 -9 -31 4 -15 14 -21 15
-27 4 -10 -16 -22 -16 -31 -1 -6 10 -15 10 -39 2 l-31 -11 15 30 c22 41 11 36
-16 -8 -126 -209 -352 -623 -424 -777 l-43 -93 -48 -6 c-138 -17 -349 -101
-454 -182 -192 -148 -212 -384 -43 -534 92 -83 202 -133 378 -173 114 -26 475
-37 623 -18 120 14 297 53 391 85 l71 24 108 -70 c319 -209 651 -304 1062
-302 357 1 612 62 1176 281 336 131 563 203 774 246 14 3 -4 2 -40 0 -130 -11
-434 -96 -720 -201 -357 -132 -637 -214 -855 -249 -135 -21 -505 -30 -632 -15
-296 36 -540 118 -761 255 l-94 58 109 54 c211 104 357 239 437 404 41 85 41
86 41 200 0 110 -1 118 -32 175 -77 146 -227 235 -463 275 -41 7 -79 16 -83
20 -5 4 15 13 45 20 130 31 318 111 438 188 68 43 202 172 196 188 -2 6 2 23
9 37 7 14 10 29 7 33 -4 4 -1 4 6 0 7 -5 11 -14 8 -22 -3 -8 -3 -14 0 -14 11
0 63 128 67 165 3 22 2 30 0 17 -2 -12 -9 -20 -14 -16 -17 10 -39 -17 -39 -47
0 -16 -4 -29 -10 -29 -5 0 -10 5 -10 10 0 6 -7 10 -15 10 -13 0 -20 -22 -17
-51 1 -3 -20 0 -46 7 -29 7 -51 8 -58 3 -33 -27 -8 95 28 139 15 17 13 82 -4
113 -12 23 -13 20 -13 -50z"/>
<path d="M6203 4293 c9 -2 23 -2 30 0 6 3 -1 5 -18 5 -16 0 -22 -2 -12 -5z"/>
<path d="M6690 4290 c0 -12 17 -12 45 0 17 7 15 9 -12 9 -18 1 -33 -3 -33 -9z"/>
<path d="M3329 4258 c-17 -24 -18 -29 -6 -19 18 14 42 51 33 51 -3 0 -15 -15
-27 -32z"/>
<path d="M4461 4274 c0 -11 3 -14 6 -6 3 7 2 16 -1 19 -3 4 -6 -2 -5 -13z"/>
<path d="M6295 4279 c64 -9 335 -10 357 -1 9 4 -78 7 -195 7 -121 1 -191 -2
-162 -6z"/>
<path d="M8709 4253 c-13 -16 -12 -17 4 -4 9 7 17 15 17 17 0 8 -8 3 -21 -13z"/>
<path d="M7674 4252 c-11 -8 -154 -257 -154 -270 0 -4 8 5 18 21 10 15 22 24
27 20 4 -5 5 -2 1 5 -10 16 45 111 90 156 23 23 30 36 22 39 -24 10 15 28 47
22 22 -4 26 -2 15 5 -18 11 -51 13 -66 2z"/>
<path d="M3564 4229 c-19 -22 -19 -22 4 -8 12 8 22 17 22 21 0 12 -6 9 -26
-13z"/>
<path d="M7781 4214 c13 -17 26 -30 28 -27 3 2 -8 16 -24 31 l-28 27 24 -31z"/>
<path d="M3270 4170 c-6 -11 -8 -20 -6 -20 3 0 10 9 16 20 6 11 8 20 6 20 -3
0 -10 -9 -16 -20z"/>
<path d="M8635 4152 c-36 -55 -72 -150 -86 -226 -19 -114 4 -212 72 -297 91
-115 322 -163 455 -96 74 37 134 117 134 176 0 16 -10 10 -46 -29 -25 -26 -60
-55 -79 -64 -46 -22 -214 -22 -280 1 -63 21 -139 95 -154 149 -29 104 4 242
89 371 l21 32 -29 -8 c-29 -9 -79 8 -66 22 4 4 4 7 1 7 -4 0 -18 -17 -32 -38z"/>
<path d="M3483 4148 c-22 -26 -37 -48 -30 -48 3 0 17 16 31 35 30 39 30 46 -1
13z"/>
<path d="M7812 4150 c0 -14 2 -19 5 -12 2 6 2 18 0 25 -3 6 -5 1 -5 -13z"/>
<path d="M3429 4073 c-13 -16 -12 -17 4 -4 9 7 17 15 17 17 0 8 -8 3 -21 -13z"/>
<path d="M7764 4058 c0 -10 1 -18 3 -18 1 0 7 8 12 18 7 13 6 19 -2 19 -7 0
-13 -9 -13 -19z"/>
<path d="M12055 4033 c-77 -18 -169 -237 -120 -286 27 -28 58 -20 115 29 103
88 138 146 119 201 -14 43 -63 67 -114 56z m-25 -27 c0 -2 -8 -10 -17 -17 -16
-13 -17 -12 -4 4 13 16 21 21 21 13z"/>
<path d="M7735 3999 c-4 -6 -5 -12 -2 -15 2 -3 7 2 10 11 7 17 1 20 -8 4z"/>
<path d="M7233 3984 c-3 -9 1 -31 10 -49 18 -39 63 -56 137 -53 l45 1 -44 4
c-40 4 -43 6 -38 29 3 18 -1 28 -12 32 -9 4 29 10 84 13 l100 5 -108 2 c-74 1
-117 7 -138 17 -27 14 -30 14 -36 -1z"/>
<path d="M7813 3993 c-24 -2 -43 -9 -43 -14 0 -6 -4 -8 -8 -5 -5 3 -7 -8 -4
-23 4 -26 1 -29 -32 -33 -20 -2 -41 1 -47 7 -9 7 -10 6 -5 -2 8 -14 -10 -18
-18 -5 -3 5 -37 10 -76 10 -39 1 -68 -2 -65 -7 6 -11 -50 -32 -61 -23 -4 4 -4
2 0 -5 3 -7 -22 -70 -58 -140 -35 -71 -96 -205 -135 -298 -87 -208 -96 -225
-186 -350 -135 -186 -261 -303 -285 -265 -5 8 -10 23 -10 33 0 32 61 178 162
390 55 114 102 223 105 242 7 47 -12 90 -52 115 -66 41 -78 33 -143 -97 -90
-180 -180 -320 -318 -494 -64 -80 -170 -177 -202 -186 -70 -17 -48 60 126 422
72 152 106 235 110 267 4 45 2 50 -35 87 -41 41 -105 63 -125 43 -6 -6 -12
-28 -13 -50 -3 -41 -123 -309 -173 -386 -106 -163 -263 -352 -319 -383 -97
-53 -84 30 44 291 71 145 69 197 -9 237 -61 31 -85 26 -108 -24 -57 -121 -379
-486 -443 -502 -154 -39 17 371 253 606 126 125 227 165 272 109 17 -21 19
-34 14 -87 -6 -58 -5 -63 13 -63 26 0 58 35 66 71 9 41 -13 109 -46 140 -48
45 -108 62 -194 57 -63 -4 -90 -12 -162 -48 -108 -54 -229 -166 -310 -289 -31
-47 -71 -107 -88 -133 -83 -127 -273 -310 -373 -360 -196 -97 -298 4 -231 230
l22 72 57 0 c76 0 140 21 232 75 268 157 332 408 117 456 -57 13 -136 -3 -227
-47 -61 -29 -96 -56 -172 -133 -155 -154 -228 -302 -238 -478 -6 -109 10 -163
65 -224 47 -52 109 -74 203 -73 148 2 295 90 455 275 l40 46 0 -91 c0 -81 3
-96 27 -137 76 -129 182 -114 341 45 45 45 102 110 127 144 24 34 46 60 48 58
2 -2 -4 -21 -13 -42 -9 -22 -19 -71 -22 -109 -7 -88 16 -143 71 -169 101 -48
201 11 379 224 35 43 37 44 30 15 -11 -52 -8 -139 7 -170 19 -37 74 -75 110
-75 78 0 187 92 323 272 44 60 82 106 84 105 2 -2 -6 -30 -18 -63 -63 -182
-18 -314 110 -314 79 0 183 86 296 245 l57 80 -9 -50 c-4 -28 -8 -77 -8 -110
1 -146 113 -211 242 -141 48 27 157 131 246 236 21 25 36 36 32 25 -26 -79
-26 -163 1 -216 27 -54 106 -81 165 -56 88 37 247 193 357 351 83 118 82 114
-52 -179 -48 -104 -95 -200 -104 -212 -14 -18 -45 -28 -167 -52 -230 -46 -341
-55 -584 -47 -117 3 -281 13 -365 22 -157 17 -524 14 -611 -4 -24 -5 59 -7
205 -4 149 2 276 0 325 -7 348 -48 597 -65 768 -51 63 5 174 21 247 35 73 15
134 24 137 21 5 -5 -102 -190 -135 -234 -15 -19 -21 -21 -52 -12 -68 20 -204
40 -341 50 -402 31 -820 -71 -989 -240 -76 -76 -104 -136 -104 -225 0 -149 92
-239 302 -297 63 -18 105 -22 232 -22 168 -1 242 10 382 55 229 74 450 236
630 460 39 49 75 89 80 89 5 0 135 -47 288 -105 456 -171 690 -232 1017 -266
154 -16 576 -6 712 15 204 33 446 108 601 186 188 94 380 239 463 349 60 80
61 99 2 29 -135 -159 -369 -301 -645 -392 -240 -79 -457 -110 -760 -110 -280
1 -536 37 -900 129 -184 47 -740 224 -740 236 0 4 26 51 59 105 32 55 79 137
104 184 l46 86 75 31 c91 38 167 87 223 145 96 100 230 320 221 365 -2 12 -34
-26 -98 -116 -130 -186 -201 -259 -302 -311 -45 -24 -79 -36 -75 -29 3 8 35
83 72 168 81 188 200 492 216 553 17 62 0 102 -60 139 -72 46 -105 37 -110
-31 -5 -78 -144 -323 -287 -507 -121 -155 -253 -273 -290 -259 -37 14 -3 113
151 434 113 236 124 278 81 329 -31 37 -111 71 -133 57 -8 -5 -17 -27 -18 -49
-4 -39 -53 -162 -115 -285 -110 -217 -404 -531 -474 -504 -66 25 81 431 321
887 46 87 80 163 77 169 -4 7 -2 8 4 4 7 -4 12 -3 12 2 0 12 202 52 265 52 31
0 66 -8 90 -20 39 -20 65 -25 65 -14 0 59 -142 102 -287 87z m192 -21 c18 -13
17 -35 0 -28 -9 3 -27 6 -39 6 -13 0 -23 6 -23 15 0 16 44 21 62 7z m-2941
-429 c0 -31 -10 -57 -38 -98 -50 -75 -144 -168 -208 -204 -49 -28 -154 -59
-164 -48 -3 2 12 33 32 68 102 181 264 333 349 326 28 -2 30 -4 29 -44z m3147
-336 c-10 -9 -11 -8 -5 6 3 10 9 15 12 12 3 -3 0 -11 -7 -18z m-721 -847 c115
-15 250 -42 250 -51 0 -12 -110 -148 -181 -224 -220 -234 -491 -365 -756 -365
-268 1 -437 131 -388 298 47 157 308 301 620 341 96 12 364 12 455 1z"/>
<path d="M12405 3849 c-82 -23 -178 -158 -178 -248 0 -38 4 -49 33 -72 l33
-28 -48 -83 c-107 -187 -246 -377 -355 -489 -84 -85 -152 -128 -176 -108 -34
28 -14 86 133 393 63 132 119 258 125 281 22 81 -33 148 -121 149 l-45 1 -7
-45 c-7 -49 -75 -207 -133 -308 -80 -141 -244 -349 -334 -424 -131 -110 -132
-35 -2 231 43 89 70 157 70 177 0 41 -39 89 -85 104 -46 15 -71 6 -84 -31 -6
-17 -41 -72 -78 -122 -139 -191 -280 -339 -362 -382 -34 -17 -35 -17 -53 5
-24 29 -23 47 8 138 49 146 176 347 298 467 123 123 219 158 266 98 19 -24 21
-36 16 -86 -5 -48 -3 -59 11 -64 30 -12 63 41 63 100 0 64 -24 106 -81 144
-38 25 -51 28 -128 28 -70 0 -97 -5 -149 -26 -197 -83 -383 -302 -467 -549
-45 -133 -43 -226 7 -300 52 -76 123 -93 207 -51 55 28 164 133 242 231 34 44
64 80 65 80 1 0 -9 -30 -22 -67 -29 -82 -30 -134 -5 -190 37 -81 123 -105 209
-58 47 25 179 152 245 235 17 21 26 27 22 15 -4 -11 -9 -47 -12 -81 -8 -86 18
-143 79 -173 59 -28 92 -27 157 7 131 66 349 339 555 695 20 33 34 47 49 47
12 0 56 9 97 20 41 11 80 20 87 20 7 0 -17 -43 -52 -95 -109 -161 -208 -380
-221 -489 -15 -130 61 -226 178 -226 118 1 271 143 459 424 78 118 90 148 58
154 -11 2 -39 -29 -83 -93 -241 -348 -426 -490 -426 -328 0 96 156 424 276
582 19 24 34 52 34 63 0 29 -37 94 -67 118 -32 25 -41 24 -148 -23 -98 -43
-145 -54 -145 -35 0 8 18 54 40 103 44 101 51 149 21 165 -23 12 -34 12 -76
-1z"/>
<path d="M3440 2597 c24 -26 46 -47 48 -47 9 0 -18 31 -53 60 l-40 34 45 -47z"/>
<path d="M5958 2573 c7 -3 16 -2 19 1 4 3 -2 6 -13 5 -11 0 -14 -3 -6 -6z"/>
<path d="M5720 2525 c-74 -18 -225 -56 -334 -84 -277 -71 -381 -85 -591 -78
-185 5 -279 23 -375 72 -29 14 -54 24 -57 21 -9 -8 160 -84 223 -100 34 -9
104 -22 155 -29 159 -21 415 11 644 83 50 16 155 47 235 70 219 63 266 78 250
78 -8 0 -76 -14 -150 -33z"/>
</g>
</svg>
